<?xml version="1.0" encoding="UTF-8" standalone="no"?>
<!-- Created with Inkscape (http://www.inkscape.org/) -->

<svg
   xmlns:dc="http://purl.org/dc/elements/1.1/"
   xmlns:cc="http://creativecommons.org/ns#"
   xmlns:rdf="http://www.w3.org/1999/02/22-rdf-syntax-ns#"
   xmlns:svg="http://www.w3.org/2000/svg"
   xmlns="http://www.w3.org/2000/svg"
   xmlns:sodipodi="http://sodipodi.sourceforge.net/DTD/sodipodi-0.dtd"
   xmlns:inkscape="http://www.inkscape.org/namespaces/inkscape"
   width="48"
   height="48"
   viewBox="0 0 12.7 12.7"
   version="1.1"
   id="svg2474"
   inkscape:version="0.92.3 (2405546, 2018-03-11)"
   sodipodi:docname="anticlinal recumbente.svg">
  <defs
     id="defs2468" />
  <sodipodi:namedview
     id="base"
     pagecolor="#ffffff"
     bordercolor="#666666"
     borderopacity="1.0"
     inkscape:pageopacity="0.0"
     inkscape:pageshadow="2"
     inkscape:zoom="8"
     inkscape:cx="17.823029"
     inkscape:cy="18.132265"
     inkscape:document-units="mm"
     inkscape:current-layer="layer1"
     showgrid="false"
     units="px"
     inkscape:window-width="683"
     inkscape:window-height="705"
     inkscape:window-x="675"
     inkscape:window-y="-8"
     inkscape:window-maximized="0" />
  <metadata
     id="metadata2471">
    <rdf:RDF>
      <cc:Work
         rdf:about="">
        <dc:format>image/svg+xml</dc:format>
        <dc:type
           rdf:resource="http://purl.org/dc/dcmitype/StillImage" />
        <dc:title />
      </cc:Work>
    </rdf:RDF>
  </metadata>
  <g
     inkscape:label="Capa 1"
     inkscape:groupmode="layer"
     id="layer1"
     transform="translate(0,-284.3)">
    <g
       id="g2560"
       transform="matrix(0,-5.3103865,4.3707625,0,-1254.842,327.556)">
      <g
         transform="translate(-2.7450521,0.16536458)"
         id="g2545">
        <path
           inkscape:connector-curvature="0"
           d="m 10.093671,287.48564 c 0.363578,0 0.658416,0.39338 0.658416,0.87877 0,0.48538 -0.294838,0.87876 -0.658416,0.87876"
           style="fill:none;stroke:#ec008c;stroke-width:0.1236449;stroke-linecap:butt;stroke-linejoin:round;stroke-miterlimit:4;stroke-dasharray:none;stroke-opacity:1"
           id="path2202" />
        <path
           inkscape:connector-curvature="0"
           d="m 9.3040922,287.4839 1.812e-4,0.39065 -0.626276,-0.38346 0.626276,-0.39014 -1.812e-4,0.38295"
           style="fill:#ec008c;fill-opacity:1;fill-rule:nonzero;stroke:none;stroke-width:0.02146613"
           id="path2204" />
        <path
           inkscape:connector-curvature="0"
           d="m 9.3040922,287.4839 1.812e-4,0.39065 -0.626276,-0.38346 0.626276,-0.39014 z"
           style="fill:#000000;fill-opacity:1;stroke-width:0.60848874"
           id="path2206" />
        <path
           inkscape:connector-curvature="0"
           d="M 9.3035351,287.48564 H 10.093671"
           style="fill:none;stroke:#ec008c;stroke-width:0.1236449;stroke-linecap:butt;stroke-linejoin:round;stroke-miterlimit:4;stroke-dasharray:none;stroke-opacity:1"
           id="path2208" />
        <path
           inkscape:connector-curvature="0"
           d="m 9.3040922,289.24143 1.812e-4,0.39064 -0.626276,-0.3832 0.626276,-0.39015 -1.812e-4,0.38271"
           style="fill:#ec008c;fill-opacity:1;fill-rule:nonzero;stroke:none;stroke-width:0.02146613"
           id="path2210" />
        <path
           inkscape:connector-curvature="0"
           d="m 9.3040922,289.24143 1.812e-4,0.39064 -0.626276,-0.3832 0.626276,-0.39015 z"
           style="fill:#000000;fill-opacity:1"
           id="path2212" />
        <path
           inkscape:connector-curvature="0"
           d="M 9.3035351,289.24317 H 10.093671"
           style="fill:none;stroke:#ec008c;stroke-width:0.1236449;stroke-linecap:butt;stroke-linejoin:round;stroke-miterlimit:4;stroke-dasharray:none;stroke-opacity:1"
           id="path2214" />
        <path
           style="fill:#000000;fill-opacity:1;stroke-width:0.03340869"
           d="m 8.9592207,287.72476 c -0.1974646,-0.12114 -0.3585514,-0.22776 -0.3579706,-0.23695 5.821e-4,-0.009 0.162143,-0.11576 0.3590269,-0.23683 l 0.3579706,-0.22013 0.00995,0.19507 0.00995,0.19508 h 0.3659015 c 0.3436289,0 0.3659019,0.004 0.3659019,0.0668 0,0.0627 -0.02227,0.0668 -0.3659019,0.0668 H 9.338139 l -0.00995,0.19518 -0.00995,0.19519 z"
           id="path2506"
           inkscape:connector-curvature="0" />
        <path
           style="fill:#000000;fill-opacity:1"
           d="m 33.875007,19.610836 c -0.773437,-0.476771 -1.396365,-0.889609 -1.384284,-0.917417 0.01208,-0.02781 0.658956,-0.44902 1.4375,-0.936027 l 1.415534,-0.885466 0.01744,0.807341 0.01744,0.807342 h 1.373186 1.373186 v 0.1875 0.1875 h -1.375 -1.375 v 0.8125 c 0,0.446875 -0.02109,0.810494 -0.04687,0.808042 -0.02578,-0.0025 -0.679687,-0.394544 -1.453125,-0.871315 z"
           id="path2534"
           inkscape:connector-curvature="0"
           transform="matrix(0.26458333,0,0,0.26458333,0,284.3)" />
      </g>
      <path
         transform="matrix(0.26458333,0,0,0.26458333,0,284.3)"
         inkscape:connector-curvature="0"
         id="path2547"
         d="m 24.950468,21.14181 c -0.03652,-0.02178 -0.06641,-0.04228 -0.06641,-0.04556 0,-0.0033 0.01918,-0.0046 0.04261,-0.003 0.03895,0.0027 0.04365,-0.0031 0.05466,-0.06737 0.0066,-0.03867 0.01658,-0.399024 0.02213,-0.800781 l 0.01008,-0.730469 h 1.372761 1.372762 v -0.195313 -0.195312 h -1.375 -1.375 l 1.56e-4,-0.04297 c 0.0011,-0.297113 -0.03868,-1.560868 -0.04931,-1.567602 -0.0078,-0.005 0.0035,-0.01711 0.02528,-0.02701 l 0.03951,-0.018 v 0.812079 0.81208 l 1.371093,0.004 c 0.754102,0.0022 1.441407,-8.97e-4 1.527344,-0.0069 0.207748,-0.01444 0.39652,-0.0701 0.625,-0.184287 0.227533,-0.11371 0.359304,-0.210024 0.555318,-0.405893 0.490332,-0.489969 0.810851,-1.207462 0.907634,-2.03177 0.028,-0.23845 0.02384,-0.748104 -0.008,-0.984375 -0.109074,-0.808762 -0.422604,-1.495947 -0.898641,-1.969605 -0.396747,-0.394765 -0.759367,-0.562226 -1.296794,-0.598869 l -0.256127,-0.01746 0.05598,-0.02665 c 0.07954,-0.03787 0.107543,-0.140635 0.0726,-0.266467 -0.02006,-0.07223 -0.06041,-0.09991 -0.188736,-0.129431 -0.09595,-0.02208 -0.0887,-0.02262 0.205224,-0.01548 0.348018,0.0085 0.514026,0.03318 0.75,0.111702 1.397809,0.465126 2.266213,2.263648 1.99086,4.123202 -0.09861,0.665927 -0.350507,1.292011 -0.720794,1.791499 -0.147373,0.198793 -0.418339,0.472041 -0.606004,0.611107 -0.269267,0.199536 -0.642139,0.364078 -0.96875,0.427493 -0.126355,0.02453 -0.291631,0.0279 -1.628769,0.03312 l -1.488143,0.0058 -0.004,0.819039 -0.004,0.819039 z"
         style="fill:#000000;fill-opacity:1;stroke-width:0.015625" />
    </g>
  </g>
</svg>
