<?xml version="1.0" encoding="UTF-8" standalone="no"?>
<!-- Created with Inkscape (http://www.inkscape.org/) -->

<svg
   xmlns:dc="http://purl.org/dc/elements/1.1/"
   xmlns:cc="http://creativecommons.org/ns#"
   xmlns:rdf="http://www.w3.org/1999/02/22-rdf-syntax-ns#"
   xmlns:svg="http://www.w3.org/2000/svg"
   xmlns="http://www.w3.org/2000/svg"
   xmlns:sodipodi="http://sodipodi.sourceforge.net/DTD/sodipodi-0.dtd"
   xmlns:inkscape="http://www.inkscape.org/namespaces/inkscape"
   width="48"
   height="48"
   viewBox="0 0 12.7 12.7"
   version="1.1"
   id="svg5176"
   inkscape:version="0.92.3 (2405546, 2018-03-11)"
   sodipodi:docname="sinclinal recumbente.svg">
  <defs
     id="defs5170" />
  <sodipodi:namedview
     id="base"
     pagecolor="#ffffff"
     bordercolor="#666666"
     borderopacity="1.0"
     inkscape:pageopacity="0.0"
     inkscape:pageshadow="2"
     inkscape:zoom="7.9195959"
     inkscape:cx="29.234842"
     inkscape:cy="33.761944"
     inkscape:document-units="mm"
     inkscape:current-layer="layer1"
     showgrid="false"
     units="px"
     inkscape:window-width="683"
     inkscape:window-height="705"
     inkscape:window-x="-8"
     inkscape:window-y="-8"
     inkscape:window-maximized="0" />
  <metadata
     id="metadata5173">
    <rdf:RDF>
      <cc:Work
         rdf:about="">
        <dc:format>image/svg+xml</dc:format>
        <dc:type
           rdf:resource="http://purl.org/dc/dcmitype/StillImage" />
        <dc:title></dc:title>
      </cc:Work>
    </rdf:RDF>
  </metadata>
  <g
     inkscape:label="Capa 1"
     inkscape:groupmode="layer"
     id="layer1"
     transform="translate(0,-284.3)">
    <g
       id="g5225">
      <path
         inkscape:connector-curvature="0"
         d="m 2.9436231,292.3797 c 0,1.83061 1.5739679,3.31652 3.5143255,3.31652 1.9428431,0 3.5143276,-1.48591 3.5143276,-3.31652"
         style="fill:none;stroke:#ec008c;stroke-width:0.69744956;stroke-linecap:butt;stroke-linejoin:miter;stroke-miterlimit:4;stroke-dasharray:none;stroke-opacity:1"
         id="path2754" />
      <path
         inkscape:connector-curvature="0"
         d="m 9.9610603,288.94552 -1.8132435,-0.78824 1.8132435,3.81419 1.6823897,-3.79655 -1.6823897,0.7706"
         style="fill:#ec008c;fill-opacity:1;fill-rule:nonzero;stroke:none;stroke-width:0.121085"
         id="path2916" />
      <path
         inkscape:connector-curvature="0"
         d="m 9.9610603,288.94552 -1.8132435,-0.78824 1.8132435,3.81419 1.6823897,-3.79655 z"
         style="fill:none;stroke:#ec008c;stroke-width:0.69744956;stroke-linecap:butt;stroke-linejoin:miter;stroke-miterlimit:4;stroke-dasharray:none;stroke-opacity:1"
         id="path2918" />
      <path
         inkscape:connector-curvature="0"
         d="m 9.9585627,288.93849 v -4.13655"
         style="fill:none;stroke:#ec008c;stroke-width:0.69744956;stroke-linecap:butt;stroke-linejoin:miter;stroke-miterlimit:4;stroke-dasharray:none;stroke-opacity:1"
         id="path2920" />
      <path
         inkscape:connector-curvature="0"
         d="m 2.9623175,288.94552 -1.8132434,-0.78824 1.8132434,3.81419 1.6823897,-3.79655 -1.6823897,0.7706"
         style="fill:#ec008c;fill-opacity:1;fill-rule:nonzero;stroke:none;stroke-width:0.121085"
         id="path2922" />
      <path
         inkscape:connector-curvature="0"
         d="m 2.9623175,288.94552 -1.8132434,-0.78824 1.8132434,3.81419 1.6823897,-3.79655 z"
         style="fill:none;stroke:#ec008c;stroke-width:0.69744956;stroke-linecap:butt;stroke-linejoin:miter;stroke-miterlimit:4;stroke-dasharray:none;stroke-opacity:1"
         id="path2924" />
      <path
         inkscape:connector-curvature="0"
         d="m 2.95982,288.93849 v -4.13655"
         style="fill:none;stroke:#ec008c;stroke-width:0.69744956;stroke-linecap:butt;stroke-linejoin:miter;stroke-miterlimit:4;stroke-dasharray:none;stroke-opacity:1"
         id="path2926" />
    </g>
    <path
       style="fill:#000000;fill-opacity:1;stroke-width:0.12626907"
       d="M 21.827349,44.112592 C 17.512374,43.389234 13.603051,40.6631 11.507708,36.916277 10.661585,35.403268 10.081785,33.418468 9.879116,31.341202 9.802835,30.559356 9.805112,30.55202 10.124062,30.55202 c 0.177069,0 0.322464,-0.04262 0.3231,-0.0947 C 10.447793,30.40523 8.5085312,26.283586 6.1376792,21.298103 3.7668272,16.312619 1.848595,12.21329 1.874941,12.188484 c 0.026346,-0.02481 1.7985271,0.715988 3.9381804,1.646209 2.1396532,0.930221 3.9437225,1.69131 4.0090429,1.69131 0.072707,0 0.1187642,-2.644269 0.1187642,-6.8185298 V 1.8889415 h 1.2626905 1.262691 v 6.8185297 c 0,3.7501918 0.02555,6.8185298 0.05678,6.8185298 0.03123,0 1.68441,-0.742775 3.673735,-1.650611 1.989325,-0.907836 3.647729,-1.619836 3.685342,-1.582224 0.03761,0.03761 -1.72921,4.125609 -3.926274,9.084435 -2.197062,4.958826 -3.994659,9.051682 -3.994659,9.095233 0,0.04355 0.08175,0.07919 0.181666,0.07919 0.121778,0 0.206961,0.197726 0.258392,0.599778 0.387326,3.027824 1.160452,4.810256 2.902618,6.691956 1.125621,1.215775 2.152857,1.970909 3.665257,2.694378 1.996222,0.954908 3.02469,1.178849 5.42957,1.18225 1.717259,0.0024 2.180001,-0.04051 3.084946,-0.286261 2.208575,-0.599766 3.951194,-1.565637 5.48151,-3.038203 1.961488,-1.887469 3.034778,-4.019178 3.380359,-6.713879 0.127272,-0.992407 0.175307,-1.130019 0.394448,-1.130019 0.151059,0 0.223176,-0.06229 0.182748,-0.157836 -0.03673,-0.08681 -2.000976,-4.217967 -4.364995,-9.180349 -2.36402,-4.962382 -4.282051,-9.038679 -4.262291,-9.058438 0.01976,-0.01976 1.79326,0.730455 3.941112,1.667142 2.147853,0.936687 3.947802,1.703156 3.999888,1.703265 0.05209,1.09e-4 0.0947,-3.068141 0.0947,-6.8183328 V 1.8889415 h 1.262691 1.26269 v 6.8185297 c 0,3.7501918 0.04701,6.8185298 0.104459,6.8185298 0.05745,0 1.747879,-0.757135 3.756505,-1.682521 2.008625,-0.925386 3.665992,-1.649855 3.683039,-1.60993 0.01705,0.03992 -1.783855,4.163707 -4.002004,9.163963 -3.969276,8.947726 -4.027906,9.092024 -3.710693,9.132646 0.319005,0.04085 0.321448,0.0499 0.238631,0.883884 -0.134073,1.350133 -0.312799,2.236822 -0.660735,3.278023 -2.196645,6.57347 -9.26346,10.623323 -16.438398,9.420526 z"
       id="path5227"
       inkscape:connector-curvature="0"
       transform="matrix(0.26458333,0,0,0.26458333,0,284.3)" />
  </g>
</svg>
